<svg width="684" height="941" viewBox="0 0 684 941" fill="none" xmlns="http://www.w3.org/2000/svg">
<path fill-rule="evenodd" clip-rule="evenodd" d="M0.463014 1.25C0.202014 1.938 0.10399 213.325 0.24399 471L0.500001 939.5L96.25 939.755L192 940.01V751.505V563H437H682V471.5V380H437H192V281.5V183H437H682V91.5V0H341.469C69.963 0 0.841014 0.253 0.463014 1.25ZM223 765.5V940H270.5H318V833.167C318 774.408 318.307 726.027 318.681 725.652C319.338 724.996 322.7 729.937 353.624 777.003C361.392 788.826 376.197 811.325 386.524 827C396.85 842.675 408.088 859.775 411.497 865C414.905 870.225 424.726 885.188 433.32 898.25L448.947 922H452.897C457.823 922 456.56 923.577 479.36 888.947C489.337 873.794 512.797 838.244 531.494 809.947C550.19 781.651 570.472 750.956 576.563 741.736C582.655 732.516 587.946 725.279 588.32 725.653C588.694 726.027 589 774.408 589 833.167V940H636.5H684V765.492V590.983L628.806 591.242L573.612 591.5L513.727 681.385C463.733 756.423 453.626 771.041 452.537 769.885C451.388 768.665 352.148 620.637 338.14 599.25L332.737 591H277.869H223V765.5Z" fill="black"/>
</svg>
