<svg width="3000" height="3000" viewBox="0 0 3000 3000" fill="none" xmlns="http://www.w3.org/2000/svg">
<path d="M1450.79 976.16C1347.6 933.246 1234.06 922.017 1124.52 943.895C1014.99 965.773 914.367 1019.77 835.394 1099.07C756.421 1178.37 702.639 1279.4 680.851 1389.38C659.062 1499.37 670.245 1613.37 712.985 1716.98C755.725 1820.58 828.102 1909.14 920.965 1971.44C983.594 2013.46 1053.64 2042.26 1126.88 2056.57C1185.69 2068.05 1234.69 2018.23 1234.69 1958.08C1234.69 1897.92 1184.98 1850.77 1127.97 1832.31C1097.51 1822.45 1068.39 1808.36 1041.49 1790.32C984.309 1751.95 939.738 1697.42 913.418 1633.62C887.099 1569.82 880.212 1499.61 893.63 1431.88C907.047 1364.15 940.167 1301.93 988.799 1253.1C1037.43 1204.27 1099.39 1171.02 1166.85 1157.54C1234.3 1144.07 1304.22 1150.99 1367.76 1177.41C1431.31 1203.84 1485.62 1248.59 1523.83 1306.01C1541.8 1333.02 1555.83 1362.26 1565.65 1392.84C1584.04 1450.09 1631 1500 1690.91 1500C1750.81 1500 1800.43 1450.79 1788.99 1391.75C1774.75 1318.21 1746.06 1247.88 1704.21 1184.99C1642.16 1091.75 1553.97 1019.08 1450.79 976.16Z" fill="#40B0BF"/>
<path d="M1550.05 2023.84C1653.24 2066.75 1766.78 2077.98 1876.32 2056.11C1985.85 2034.23 2086.47 1980.23 2165.45 1900.93C2244.42 1821.63 2298.2 1720.6 2319.99 1610.62C2341.78 1500.63 2330.59 1386.63 2287.85 1283.02C2245.11 1179.42 2172.74 1090.86 2079.87 1028.56C2017.24 986.543 1947.19 957.737 1873.96 943.434C1815.15 931.949 1766.15 981.769 1766.15 1041.92C1766.15 1102.08 1815.86 1149.23 1872.87 1167.69C1903.33 1177.55 1932.45 1191.64 1959.34 1209.68C2016.53 1248.05 2061.1 1302.58 2087.42 1366.38C2113.74 1430.18 2120.63 1500.39 2107.21 1568.12C2093.79 1635.85 2060.67 1698.07 2012.04 1746.9C1963.41 1795.73 1901.45 1828.98 1833.99 1842.46C1766.54 1855.93 1696.62 1849.01 1633.07 1822.59C1569.53 1796.16 1515.22 1751.41 1477.01 1693.99C1459.04 1666.98 1445.01 1637.74 1435.19 1607.16C1416.8 1549.91 1369.84 1500 1309.93 1500C1250.03 1500 1200.41 1549.21 1211.85 1608.25C1226.09 1681.79 1254.78 1752.12 1296.63 1815.01C1358.68 1908.25 1446.87 1980.93 1550.05 2023.84Z" fill="#40B0BF"/>
</svg>
