<svg width="1292" height="650" viewBox="0 0 1292 650" fill="none" xmlns="http://www.w3.org/2000/svg">
<path fill-rule="evenodd" clip-rule="evenodd" d="M184.264 112.254V168V174.571C184.264 178.608 184.264 171.5 184.264 182.294V185.914L184.813 328.379C185.424 486.706 184.843 473.623 192.267 495.984C206.305 538.273 240.398 572.106 282.66 585.689C310.555 594.654 342.055 594.823 369.32 586.152C418.275 570.584 453.872 531.368 465.821 479.837C467.869 471.006 467.916 468.295 468.446 328.952C468.841 225.201 469.294 186.39 470.134 184.563C471.426 181.752 475.873 177.381 479.16 175.692C482.35 174.053 490.14 174.323 494.116 176.211C496.016 177.112 498.782 179.437 500.261 181.378L502.953 184.906L503.526 326.376C504.161 483.384 503.725 473.432 510.929 494.976C517.808 515.552 528.279 532.88 543.274 548.507C568.365 574.654 599.499 589.55 634.453 592.132C663.478 594.275 691.411 588.108 715.656 574.203C728.655 566.748 734.507 562.194 746.268 550.381C765.73 530.833 778.185 508.195 784.808 480.336C786.459 473.388 786.628 462.467 787.132 330.451C787.736 171.989 787.167 183.723 794.524 178.11C803.096 171.571 815.682 174.347 820.929 183.933C822.516 186.833 822.678 197.464 823.149 329.952L823.658 472.842L826.766 484.333C834.339 512.327 845.469 531.81 865.032 551.319C894.705 580.91 934.321 595.514 975.859 592.175C1020.39 588.595 1058.61 565.857 1083.56 528.1C1093.72 512.724 1099.87 497.865 1104.15 478.374C1106.21 469.024 1106.26 466.195 1106.8 327.454L1107.36 186.062V183.5C1107.36 162.5 1107.33 193.5 1107.36 172.544V167.27V112V50.7766C1072.42 53.3726 1048.78 66.8114 1023.91 91.6233C1000.04 115.432 986.13 145.165 983.002 179.067C982.375 185.85 981.986 240.866 981.986 322.757C981.985 468.195 982.402 458.3 976.052 463.644C969.581 469.091 961.925 469.543 954.9 464.892C946.876 459.581 947.586 473.146 946.971 313.464C946.365 156.05 946.875 168.103 939.943 147.254C932.015 123.401 917.498 101.273 899.267 85.2512C856.578 47.735 794.955 39.1965 743.647 63.6898C729.769 70.3147 717.688 79.074 705.193 91.5724C684.596 112.174 672.992 133.306 666.053 162.855C663.901 172.02 663.885 172.89 663.342 313.964C662.835 445.979 662.677 456.075 661.068 459.015C657.649 465.266 649.699 469.203 643.024 467.951C638.809 467.161 633.75 463.849 630.92 460.029L628.83 457.208L628.283 315.14C627.743 174.733 627.712 172.964 625.608 163.802C618.847 134.353 606.291 111.347 585.946 91.1347C565.634 70.9542 542.778 58.6526 514.13 52.4833C499.513 49.3357 472.425 49.3357 457.809 52.4833C401.852 64.5341 361.434 104.401 347.332 161.451C345.22 169.994 345.195 171.39 344.654 312.465C344.258 415.811 343.796 455.541 342.97 457.354C340.161 463.519 332.984 468.346 326.625 468.346C319.223 468.346 311.454 461.916 309.721 454.356C309.041 451.388 308.683 403.471 308.666 313.345C308.64 165.356 308.828 170.863 303.133 151.076C299.948 140.009 291.638 122.453 284.757 112.254C260.109 75.7195 228.782 54.6306 184.264 51.5L184.264 112.254Z" fill="#84FAB3"/>
<g filter="url(#filter0_d_2_16)">
<path d="M965.135 592.583C830.177 592.583 734.506 498.688 646 395.994C556.756 499.318 461.379 592.583 326.867 592.583C175.85 592.583 53 470.657 53 320.792C53 170.926 175.85 49 326.867 49C461.871 49 560.459 144.82 646 243.56C731.493 144.921 830.177 49 965.135 49C1116.16 49 1239 170.926 1239 320.792C1239 470.657 1116.1 592.583 965.135 592.583ZM710.786 319.801C790.89 413.547 868.327 493.747 965.135 493.747C1061.65 493.747 1140.17 416.217 1140.17 320.84C1140.17 225.515 1061.65 147.937 965.135 147.937C866.895 147.889 789.506 227.642 710.786 319.801ZM326.867 147.889C230.356 147.889 151.833 225.463 151.833 320.792C151.833 416.169 230.356 493.694 326.867 493.694C424.17 493.694 501.853 412.792 581.214 319.705C502.398 227.642 425.057 147.889 326.867 147.889Z" fill="#D299FF"/>
</g>
<defs>
<filter id="filter0_d_2_16" x="0" y="0" width="1292" height="649.583" filterUnits="userSpaceOnUse" color-interpolation-filters="sRGB">
<feFlood flood-opacity="0" result="BackgroundImageFix"/>
<feColorMatrix in="SourceAlpha" type="matrix" values="0 0 0 0 0 0 0 0 0 0 0 0 0 0 0 0 0 0 127 0" result="hardAlpha"/>
<feOffset dy="4"/>
<feGaussianBlur stdDeviation="26.5"/>
<feComposite in2="hardAlpha" operator="out"/>
<feColorMatrix type="matrix" values="0 0 0 0 0 0 0 0 0 0.572392 0 0 0 0 0.698039 0 0 0 0.4 0"/>
<feBlend mode="normal" in2="BackgroundImageFix" result="effect1_dropShadow_2_16"/>
<feBlend mode="normal" in="SourceGraphic" in2="effect1_dropShadow_2_16" result="shape"/>
</filter>
</defs>
</svg>
